<svg height="12" viewBox="0 0 16 12" width="16" xmlns="http://www.w3.org/2000/svg"><g fill="none" fill-rule="evenodd" transform="translate(-1)"><path d="m2.21710021 8.08330398c-.09460229-.25442926.053667-.46068493.3251186-.46068493h1.5343941c1.18927511 0 2.46650539.91292928 2.85271834 2.03892325l.45314764 1.3211404c.17895628.5217424-.1279756.9446983-.67151878.9446983h-1.89728166-.66546678c-.27713687 0-.57900112-.2076277-.67309329-.460685zm.89537407-1.53687541c-1.17820747 0-2.13333333-.96365378-2.13333333-2.15238095 0-1.18872718.95512586-2.15238095 2.13333333-2.15238095s2.13333333.96365377 2.13333333 2.15238095c0 1.18872717-.95512586 2.15238095-2.13333333 2.15238095z" fill="#d0d0d3" transform="matrix(-1 0 0 1 8.412732 0)"/><path d="m11.5245306 11.927381h-5.56039627c-.55445659 0-.85138452-.4196392-.66140283-.9372904l.70125918-1.91075074c.51560371-1.40488734 2.13834452-2.53291129 3.62941068-2.53291129h2.89652434.0298578c1.4910662 0 3.113807 1.12802395 3.6294107 2.53291129l.7012592 1.91075074c.1899817.5176512-.1069463.9372904-.6614028.9372904zm-.4530054-6.4571429c-1.47275932 0-2.66666666-1.20456723-2.66666666-2.6904762 0-1.48590896 1.19390734-2.69047619 2.66666666-2.69047619 1.4727593 0 2.6666667 1.20456723 2.6666667 2.69047619 0 1.48590897-1.1939074 2.6904762-2.6666667 2.6904762z" fill="#000"/></g></svg>
