<svg height="17" viewBox="0 0 12 17" width="12" xmlns="http://www.w3.org/2000/svg"><g fill="none" fill-rule="evenodd"><path d="m2.52631579 5.8656015v-1.73907343c0-1.85494273 1.51187887-3.35867093 3.36842105-3.35867093 1.86032758 0 3.36842105 1.50847293 3.36842105 3.35867093v1.73907343h1.03317081c.8246412 0 1.493145.66895449 1.493145 1.50437948v7.18672982c0 .8308458-.6676325 1.5043794-1.493145 1.5043794h-8.80318371c-.82464121 0-1.49314499-.6689545-1.49314499-1.5043794v-7.18672982c0-.83084584.66763245-1.50437948 1.49314499-1.50437948zm0 1.69924812h-.84210526v6.79699248h8.42105267v-6.79699248h-.84210531zm1.68421053-3.4184089v1.71916078h3.36842105v-1.71916078c0-.92509899-.75404674-1.67933546-1.68421053-1.67933546-.93664872 0-1.68421052.7518641-1.68421052 1.67933546z" fill="#000"/><ellipse cx="5.894737" cy="10.963346" fill="#d0d0d3" rx="1.684211" ry="1.699248"/></g></svg>
