<svg height="16" viewBox="0 0 15 16" width="15" xmlns="http://www.w3.org/2000/svg"><path d="m12 97.3092369c-.608 0-1.152.2409639-1.568.6184739l-5.704-3.3333333c.04-.1847389.072-.3694779.072-.562249s-.032-.37751-.072-.562249l5.64-3.3012048c.432.4016064 1 .6506024 1.632.6506024 1.328 0 2.4-1.0763052 2.4-2.4096385 0-1.3333334-1.072-2.4096386-2.4-2.4096386s-2.4 1.0763052-2.4 2.4096386c0 .192771.032.37751.072.562249l-5.64 3.3012048c-.432-.4016065-1-.6506024-1.632-.6506024-1.328 0-2.4 1.0763052-2.4 2.4096385s1.072 2.4096386 2.4 2.4096386c.632 0 1.2-.248996 1.632-.6506024l5.696 3.3413654c-.04.1686747-.064.3453815-.064.5220884 0 1.2931725 1.048 2.3453815 2.336 2.3453815s2.336-1.052209 2.336-2.3453815c0-1.2931727-1.048-2.3453816-2.336-2.3453816z" transform="translate(0 -86)"/></svg>
